<svg id="Camada_1" data-name="Camada 1" xmlns="http://www.w3.org/2000/svg" viewBox="0 0 216 64"><defs><style>.cls-1{fill:#a6a6a6;}.cls-2{fill:#fff;}</style></defs><path class="cls-1" d="M208,0H8A8,8,0,0,0,0,8V56a8,8,0,0,0,8,8H208a8,8,0,0,0,8-8V8A8,8,0,0,0,208,0Z"/><path class="cls-2" d="M41.66,34.57H21.93a2.51,2.51,0,0,0,0,5H44.67s1.18-1.18-.09-3.09A3.86,3.86,0,0,0,41.66,34.57Z"/><path class="cls-2" d="M40.66,13.51,28.41,34.72a2.5,2.5,0,1,0,4.33,2.5L45,16a2.5,2.5,0,0,0-.91-3.42A2.47,2.47,0,0,0,40.66,13.51Z"/><path class="cls-2" d="M55.66,43.82,43.08,22a5.51,5.51,0,0,0-1.83,4.22,9.74,9.74,0,0,0,1.15,4.68l8.93,15.46a2.47,2.47,0,0,0,3.41.92A2.58,2.58,0,0,0,55.66,43.82Z"/><path class="cls-2" d="M56.92,34.57h-7a2.51,2.51,0,0,0,0,5h7a2.51,2.51,0,1,0,0-5Z"/><path class="cls-2" d="M40.81,18.11l-2.65-4.63A2.5,2.5,0,0,0,33.83,16l2.65,4.62a2.5,2.5,0,0,0,4.33-2.5Z"/><path class="cls-2" d="M23.17,43.79l1.59-2.74s.38-.76,1.88-.76a4,4,0,0,1,3.24,1.82L27.5,46.29a2.5,2.5,0,1,1-4.33-2.5Z"/><path class="cls-2" d="M87.23,48.77H83.77l-1.9-6H75.28l-1.81,6H70.1l6.53-20.29h4ZM81.3,40.31,79.59,35c-.19-.54-.52-1.82-1-3.82H78.5c-.2.86-.52,2.14-1,3.82l-1.69,5.3Z"/><path class="cls-2" d="M104,41.27a8.33,8.33,0,0,1-2,5.9,5.88,5.88,0,0,1-4.49,1.93A4.47,4.47,0,0,1,93.37,47h-.06v7.71H90.06V39c0-1.56,0-3.17-.12-4.81H92.8L93,36.46H93a5.78,5.78,0,0,1,9.25-.58A8.06,8.06,0,0,1,104,41.27Zm-3.32.12a6,6,0,0,0-1-3.52,3.32,3.32,0,0,0-2.83-1.44,3.36,3.36,0,0,0-2.18.79,3.73,3.73,0,0,0-1.28,2.1,4.25,4.25,0,0,0-.15,1v2.44a3.91,3.91,0,0,0,1,2.69,3.25,3.25,0,0,0,2.54,1.1,3.32,3.32,0,0,0,2.86-1.41A6.27,6.27,0,0,0,100.71,41.39Z"/><path class="cls-2" d="M120.85,41.27a8.29,8.29,0,0,1-2,5.9,5.86,5.86,0,0,1-4.48,1.93A4.46,4.46,0,0,1,110.2,47h-.06v7.71h-3.25V39c0-1.56,0-3.17-.12-4.81h2.85l.19,2.32h.06a5.78,5.78,0,0,1,9.25-.58A8.06,8.06,0,0,1,120.85,41.27Zm-3.31.12a6,6,0,0,0-1-3.52,3.46,3.46,0,0,0-5-.65,3.68,3.68,0,0,0-1.28,2.1,4.25,4.25,0,0,0-.15,1v2.44a3.9,3.9,0,0,0,1,2.69,3.26,3.26,0,0,0,2.55,1.1,3.33,3.33,0,0,0,2.86-1.41A6.27,6.27,0,0,0,117.54,41.39Z"/><path class="cls-2" d="M139.66,43.08a5.38,5.38,0,0,1-1.8,4.21,8,8,0,0,1-5.52,1.78,9.59,9.59,0,0,1-5.26-1.27l.75-2.7a8.93,8.93,0,0,0,4.7,1.29,4.43,4.43,0,0,0,2.86-.83,2.7,2.7,0,0,0,1-2.21,2.82,2.82,0,0,0-.84-2.08,7.64,7.64,0,0,0-2.8-1.57q-5.33-2-5.33-5.82a5.16,5.16,0,0,1,1.87-4.1,7.35,7.35,0,0,1,5-1.6,9.73,9.73,0,0,1,4.6,1l-.81,2.65a7.9,7.9,0,0,0-3.88-.94,3.88,3.88,0,0,0-2.68.85,2.4,2.4,0,0,0-.81,1.83,2.49,2.49,0,0,0,.93,2,10.45,10.45,0,0,0,3,1.56,10,10,0,0,1,3.85,2.47A5.13,5.13,0,0,1,139.66,43.08Z"/><path class="cls-2" d="M150.41,36.58h-3.58v7.1c0,1.81.63,2.71,1.9,2.71a5.78,5.78,0,0,0,1.44-.15l.09,2.47a7.38,7.38,0,0,1-2.53.36,3.91,3.91,0,0,1-3-1.18A5.77,5.77,0,0,1,143.64,44V36.57H141.5V34.14h2.14V31.46l3.19-1v3.65h3.58Z"/><path class="cls-2" d="M166.57,41.33a8,8,0,0,1-1.92,5.54,6.89,6.89,0,0,1-5.36,2.23A6.51,6.51,0,0,1,154.16,47a7.74,7.74,0,0,1-1.91-5.38,7.92,7.92,0,0,1,2-5.57,6.8,6.8,0,0,1,5.31-2.17A6.68,6.68,0,0,1,164.71,36,7.71,7.71,0,0,1,166.57,41.33Zm-3.37.11a6.6,6.6,0,0,0-.87-3.47,3.2,3.2,0,0,0-2.92-1.75,3.26,3.26,0,0,0-3,1.75,6.72,6.72,0,0,0-.87,3.53,6.6,6.6,0,0,0,.87,3.47,3.32,3.32,0,0,0,5.87,0A6.58,6.58,0,0,0,163.2,41.44Z"/><path class="cls-2" d="M177.14,37a5.53,5.53,0,0,0-1-.09,3.07,3.07,0,0,0-2.65,1.29,4.91,4.91,0,0,0-.82,2.89v7.68H169.4l0-10c0-1.69,0-3.23-.12-4.61h2.83l.12,2.8h.09A5.08,5.08,0,0,1,174,34.62a3.92,3.92,0,0,1,2.35-.78,5,5,0,0,1,.81.06Z"/><path class="cls-2" d="M191.68,40.76a7.83,7.83,0,0,1-.12,1.48h-9.75a4.23,4.23,0,0,0,1.41,3.31,4.83,4.83,0,0,0,3.19,1,10.79,10.79,0,0,0,3.94-.69l.52,2.25A12.12,12.12,0,0,1,186,49a7.1,7.1,0,0,1-5.34-2,7.38,7.38,0,0,1-1.94-5.37,8.4,8.4,0,0,1,1.8-5.51,6.22,6.22,0,0,1,5.12-2.35,5.45,5.45,0,0,1,4.79,2.35A8,8,0,0,1,191.68,40.76Zm-3.1-.84a4.42,4.42,0,0,0-.63-2.5,2.87,2.87,0,0,0-2.6-1.36,3.06,3.06,0,0,0-2.58,1.33,4.76,4.76,0,0,0-1,2.53Z"/><path class="cls-2" d="M80.23,16a5,5,0,0,1-1.62,4.05,6.39,6.39,0,0,1-4.24,1.26A19.64,19.64,0,0,1,72,21.19V11.38a18.26,18.26,0,0,1,2.76-.2,5.9,5.9,0,0,1,3.94,1.14A4.57,4.57,0,0,1,80.23,16Zm-1.69,0a3.65,3.65,0,0,0-.92-2.67,3.66,3.66,0,0,0-2.7-.94,6.82,6.82,0,0,0-1.29.11V20a8.29,8.29,0,0,0,1.08.05,3.77,3.77,0,0,0,2.83-1A4.08,4.08,0,0,0,78.54,16Z"/><path class="cls-2" d="M89.16,17.57a4,4,0,0,1-1,2.72,3.37,3.37,0,0,1-2.63,1.09,3.2,3.2,0,0,1-2.52-1.05,3.8,3.8,0,0,1-.94-2.65,3.88,3.88,0,0,1,1-2.73,3.35,3.35,0,0,1,2.61-1.06,3.27,3.27,0,0,1,2.54,1A3.81,3.81,0,0,1,89.16,17.57Zm-1.66.05a3.22,3.22,0,0,0-.43-1.71,1.57,1.57,0,0,0-1.43-.86,1.6,1.6,0,0,0-1.46.86,3.28,3.28,0,0,0-.43,1.74,3.18,3.18,0,0,0,.43,1.7,1.63,1.63,0,0,0,2.88,0A3.31,3.31,0,0,0,87.5,17.62Z"/><path class="cls-2" d="M101.14,14l-2.25,7.19H97.42l-.93-3.12c-.23-.78-.43-1.56-.58-2.32h0a18.3,18.3,0,0,1-.58,2.32l-1,3.12H92.84L90.72,14h1.65l.81,3.42c.19.81.36,1.58.49,2.31h0c.12-.61.32-1.37.6-2.3l1-3.43h1.3l1,3.36q.34,1.23.57,2.37h0q.17-1.11.48-2.37L99.57,14Z"/><path class="cls-2" d="M109.42,21.22h-1.6V17.1c0-1.27-.48-1.9-1.45-1.9a1.42,1.42,0,0,0-1.15.52,1.83,1.83,0,0,0-.45,1.23v4.27h-1.59V16.09c0-.64,0-1.32-.06-2.06h1.4l.08,1.12h0a2.35,2.35,0,0,1,.83-.86,2.69,2.69,0,0,1,1.45-.41,2.3,2.3,0,0,1,1.67.65,3.17,3.17,0,0,1,.83,2.38Z"/><path class="cls-2" d="M113.82,21.22h-1.59V10.73h1.59Z"/><path class="cls-2" d="M123.23,17.57a4,4,0,0,1-1,2.72,3.37,3.37,0,0,1-2.63,1.09,3.2,3.2,0,0,1-2.52-1.05,3.8,3.8,0,0,1-.94-2.65,3.88,3.88,0,0,1,1-2.73,3.36,3.36,0,0,1,2.61-1.06,3.27,3.27,0,0,1,2.54,1A3.81,3.81,0,0,1,123.23,17.57Zm-1.66.05a3.22,3.22,0,0,0-.43-1.71,1.57,1.57,0,0,0-1.43-.86,1.6,1.6,0,0,0-1.46.86,3.28,3.28,0,0,0-.43,1.74,3.18,3.18,0,0,0,.43,1.7,1.63,1.63,0,0,0,2.88,0A3.22,3.22,0,0,0,121.57,17.62Z"/><path class="cls-2" d="M131,21.22h-1.43l-.12-.83h0a2.46,2.46,0,0,1-2.1,1,2.2,2.2,0,0,1-1.64-.65,2,2,0,0,1-.56-1.46,2.24,2.24,0,0,1,1.1-2,5.68,5.68,0,0,1,3.1-.68v-.14c0-.94-.49-1.42-1.49-1.42a3.28,3.28,0,0,0-1.87.54l-.33-1.05a4.58,4.58,0,0,1,2.47-.62q2.82,0,2.82,3v2.65A11.19,11.19,0,0,0,131,21.22Zm-1.66-2.47V17.64c-1.76,0-2.64.45-2.64,1.45a1,1,0,0,0,1.09,1.12,1.58,1.58,0,0,0,1-.33,1.36,1.36,0,0,0,.56-.85A2.16,2.16,0,0,0,129.3,18.75Z"/><path class="cls-2" d="M140,21.22h-1.42l-.07-1.16h-.05a2.38,2.38,0,0,1-2.3,1.32,2.7,2.7,0,0,1-2.16-1,3.92,3.92,0,0,1-.86-2.64,4.18,4.18,0,0,1,.93-2.83,2.87,2.87,0,0,1,2.22-1,2.15,2.15,0,0,1,2,1h0V10.73H140v8.55C140,20,140,20.63,140,21.22Zm-1.66-3V17a2.23,2.23,0,0,0,0-.5,1.77,1.77,0,0,0-.58-1,1.57,1.57,0,0,0-1.07-.39,1.62,1.62,0,0,0-1.4.71,3,3,0,0,0-.51,1.82,2.84,2.84,0,0,0,.49,1.73,1.64,1.64,0,0,0,1.39.71,1.54,1.54,0,0,0,1.27-.6A2,2,0,0,0,138.38,18.19Z"/><path class="cls-2" d="M153.71,17.57a4,4,0,0,1-1,2.72,3.38,3.38,0,0,1-2.64,1.09,3.22,3.22,0,0,1-2.52-1.05,3.84,3.84,0,0,1-.93-2.65,3.92,3.92,0,0,1,1-2.73,3.37,3.37,0,0,1,2.62-1.06,3.27,3.27,0,0,1,2.54,1A3.81,3.81,0,0,1,153.71,17.57Zm-1.66.05a3.22,3.22,0,0,0-.43-1.71,1.58,1.58,0,0,0-1.43-.86,1.62,1.62,0,0,0-1.47.86,3.28,3.28,0,0,0-.43,1.74,3.27,3.27,0,0,0,.43,1.7,1.61,1.61,0,0,0,1.45.86,1.59,1.59,0,0,0,1.43-.87A3.22,3.22,0,0,0,152.05,17.62Z"/><path class="cls-2" d="M162.29,21.22H160.7V17.1c0-1.27-.48-1.9-1.45-1.9a1.41,1.41,0,0,0-1.15.52,1.83,1.83,0,0,0-.45,1.23v4.27h-1.6V16.09c0-.64,0-1.32-.05-2.06h1.4l.07,1.12h.05a2.28,2.28,0,0,1,.83-.86,2.67,2.67,0,0,1,1.45-.41,2.33,2.33,0,0,1,1.67.65,3.17,3.17,0,0,1,.82,2.38Z"/><path class="cls-2" d="M173.05,15.23h-1.76v3.49c0,.89.31,1.33.93,1.33a2.83,2.83,0,0,0,.71-.07l0,1.21a3.54,3.54,0,0,1-1.24.18,1.94,1.94,0,0,1-1.48-.58,2.85,2.85,0,0,1-.53-1.94V15.23h-1.05V14h1.05V12.72l1.57-.48V14H173v1.2Z"/><path class="cls-2" d="M181.51,21.22h-1.6V17.13c0-1.29-.49-1.93-1.45-1.93a1.53,1.53,0,0,0-1.53,1.12,2.36,2.36,0,0,0-.07.58v4.32h-1.6V10.73h1.6v4.34h0a2.42,2.42,0,0,1,2.16-1.19,2.2,2.2,0,0,1,1.64.66,3.27,3.27,0,0,1,.82,2.41Z"/><path class="cls-2" d="M190.23,17.29a3.73,3.73,0,0,1-.06.72h-4.79a2.12,2.12,0,0,0,.69,1.63,2.42,2.42,0,0,0,1.57.5,5.23,5.23,0,0,0,1.94-.34l.25,1.11a6.1,6.1,0,0,1-2.41.44,3.48,3.48,0,0,1-2.63-1,3.67,3.67,0,0,1-.95-2.64,4.1,4.1,0,0,1,.89-2.71,3.07,3.07,0,0,1,2.51-1.15A2.7,2.7,0,0,1,189.59,15,3.85,3.85,0,0,1,190.23,17.29Zm-1.52-.42a2.2,2.2,0,0,0-.31-1.22,1.39,1.39,0,0,0-1.28-.67,1.53,1.53,0,0,0-1.27.65,2.46,2.46,0,0,0-.47,1.24Z"/></svg>