<svg id="Camada_1" data-name="Camada 1" xmlns="http://www.w3.org/2000/svg" viewBox="0 0 216 64"><defs><style>.cls-1{fill:#a6a6a6;}.cls-2,.cls-3{fill:#fff;}.cls-3{fill-rule:evenodd;}</style></defs><path class="cls-1" d="M208,0H8A8,8,0,0,0,0,8V56a8,8,0,0,0,8,8H208a8,8,0,0,0,8-8V8A8,8,0,0,0,208,0Z"/><path class="cls-2" d="M109,34.8A6.79,6.79,0,0,0,102.76,39a6.77,6.77,0,0,0-.37,3.93,6.88,6.88,0,0,0,1.87,3.47,6.76,6.76,0,0,0,3.48,1.85,6.86,6.86,0,0,0,3.93-.39A6.79,6.79,0,0,0,109,34.8Zm0,10.93a4.13,4.13,0,0,1-3.31-6.93,4.1,4.1,0,0,1,2.11-1.21,4,4,0,0,1,2.42.18,4.12,4.12,0,0,1,2.62,3.83,3.85,3.85,0,0,1-.23,1.54,3.93,3.93,0,0,1-.81,1.33,3.8,3.8,0,0,1-1.27.91A3.84,3.84,0,0,1,109,45.73ZM94.13,34.8A6.76,6.76,0,0,0,87.86,39a6.69,6.69,0,0,0-.38,3.93,6.8,6.8,0,0,0,13.46-1.34,6.61,6.61,0,0,0-.49-2.63A6.75,6.75,0,0,0,99,36.75a6.92,6.92,0,0,0-2.23-1.47,6.78,6.78,0,0,0-2.63-.48Zm0,10.93a4.17,4.17,0,0,1-4-2.33,4.22,4.22,0,0,1-.36-2.4,4.1,4.1,0,0,1,1.06-2.19A4.12,4.12,0,0,1,98,41.6a3.85,3.85,0,0,1-.23,1.54,4,4,0,0,1-3.61,2.59ZM76.38,36.9v2.88H83.3a6.11,6.11,0,0,1-1.6,3.63A7.38,7.38,0,0,1,79.26,45a7.16,7.16,0,0,1-2.89.49,7.68,7.68,0,0,1,0-15.36,7.37,7.37,0,0,1,5.23,2.06l2-2A10,10,0,0,0,80.31,28a10.15,10.15,0,0,0-3.93-.76A10.58,10.58,0,0,0,66.24,41.91a10.74,10.74,0,0,0,2.4,3.48,10.47,10.47,0,0,0,3.57,2.26,10.61,10.61,0,0,0,4.17.69,9.35,9.35,0,0,0,9.88-9.72,9.88,9.88,0,0,0-.16-1.8Zm72.5,2.24a6.4,6.4,0,0,0-5.82-4.34,6.4,6.4,0,0,0-4.68,2,6.38,6.38,0,0,0-1.72,4.79,6.67,6.67,0,0,0,.47,2.61,6.65,6.65,0,0,0,6.28,4.19,6.75,6.75,0,0,0,5.66-3l-2.32-1.6a3.79,3.79,0,0,1-1.42,1.39,3.93,3.93,0,0,1-1.92.5,3.44,3.44,0,0,1-3.3-2.06l9.11-3.76Zm-9.28,2.27a3.62,3.62,0,0,1,.2-1.46,3.69,3.69,0,0,1,.74-1.27,3.65,3.65,0,0,1,1.18-.88,3.6,3.6,0,0,1,1.43-.36,2.64,2.64,0,0,1,2.53,1.44ZM132.21,48h3V28h-3Zm-4.9-11.68h-.11a4.83,4.83,0,0,0-3.58-1.6,6.82,6.82,0,0,0,0,13.62,4.64,4.64,0,0,0,2-.41,4.51,4.51,0,0,0,1.61-1.19h.1v1c0,2.61-1.4,4-3.64,4a3.79,3.79,0,0,1-2.08-.68,3.86,3.86,0,0,1-1.34-1.73l-2.61,1.08a6.49,6.49,0,0,0,6,4c3.51,0,6.4-2.06,6.4-7.09V35.2h-2.75Zm-3.42,9.41a4.15,4.15,0,0,1,0-8.26,4,4,0,0,1,1.47.38,3.78,3.78,0,0,1,1.21.92,3.86,3.86,0,0,1,1,2.83,3.92,3.92,0,0,1-.18,1.52,3.71,3.71,0,0,1-.76,1.32,3.78,3.78,0,0,1-1.22.92,3.85,3.85,0,0,1-1.49.37ZM162.9,28h-7.16V48h3V40.42h4.17a6.26,6.26,0,0,0,6.16-3.73,6.31,6.31,0,0,0,0-5,6.46,6.46,0,0,0-1.47-2.07,6.28,6.28,0,0,0-2.17-1.31,6.19,6.19,0,0,0-2.52-.34Zm0,9.6h-4.18V30.78H163a3.43,3.43,0,0,1,3.43,3.44A3.43,3.43,0,0,1,163,37.65Zm18.44-2.88A5.56,5.56,0,0,0,176,37.78l2.65,1.1a3.76,3.76,0,0,1,3.85-1.38,3,3,0,0,1,1,.53,2.67,2.67,0,0,1,.73.87,2.89,2.89,0,0,1,.33,1.08v.21a6.64,6.64,0,0,0-3.12-.77c-2.86,0-5.76,1.6-5.76,4.5a4.59,4.59,0,0,0,.45,1.78,4.58,4.58,0,0,0,2.69,2.39,4.52,4.52,0,0,0,1.82.23,4.29,4.29,0,0,0,2.18-.43,4.19,4.19,0,0,0,1.66-1.49h.1V48h2.88V40.3c0-3.5-2.66-5.53-6.07-5.53Zm-.36,11c-1,0-2.34-.5-2.34-1.7,0-1.6,1.7-2.12,3.2-2.12a5.18,5.18,0,0,1,2.72.67,3.62,3.62,0,0,1-3.5,3.2ZM198,35.2l-3.42,8.67h-.1l-3.55-8.67h-3.2L193,47.33l-3,6.73h3.12l8.19-18.86ZM171.09,48h3V28h-3Z"/><path class="cls-2" d="M75.77,16.48a4.29,4.29,0,0,1-1.2,3.2A4.42,4.42,0,0,1,73,20.77a4.59,4.59,0,0,1-1.91.34A5.07,5.07,0,0,1,66.43,18a5,5,0,0,1,1.09-5.47,4.88,4.88,0,0,1,1.61-1.09,4.71,4.71,0,0,1,1.92-.35,4.76,4.76,0,0,1,2,.4,3.9,3.9,0,0,1,1.5,1.07l-.84.85a3.29,3.29,0,0,0-1.18-.88,3.14,3.14,0,0,0-1.45-.26,3.79,3.79,0,0,0-1.45.29,3.69,3.69,0,0,0-1.23.84,3.57,3.57,0,0,0-.8,1.25,3.81,3.81,0,0,0-.25,1.46,3.71,3.71,0,0,0,.61,2.1,3.78,3.78,0,0,0,1.67,1.42,3.87,3.87,0,0,0,2.18.25,3.78,3.78,0,0,0,1.94-1,3,3,0,0,0,.8-1.95H71.05V15.76h4.66A4.37,4.37,0,0,1,75.77,16.48Zm7.33-4H78.78v3h3.94v1.16H78.78v3H83.1V20.9H77.5V11.3h5.6Zm5.25,8.42H87.12V12.48H84.43V11.3H91.1v1.18H88.35Zm7.45,0V11.3H97v9.6Zm6.71,0h-1.23V12.48H98.59V11.3h6.59v1.18h-2.67Zm15.17-1.25a5,5,0,0,1-7,0,5.17,5.17,0,0,1,0-7.12,5,5,0,0,1,3.52-1.46,5,5,0,0,1,1.9.38,5.05,5.05,0,0,1,1.62,1.08,5.17,5.17,0,0,1,0,7.12Zm-6.13-.8a3.68,3.68,0,0,0,5.21,0,4.07,4.07,0,0,0,0-5.5,3.68,3.68,0,0,0-5.21,0,4.1,4.1,0,0,0,0,5.5Zm9.28,2V11.3h1.5L127,18.77V11.3h1.24v9.6H127l-4.88-7.82V20.9Z"/><path class="cls-3" d="M114.16,11.23a4.7,4.7,0,0,0-1.85.37,4.79,4.79,0,0,0-1.56,1,5,5,0,0,0,0,6.9,4.84,4.84,0,0,0,6.81,0,5,5,0,0,0,0-6.9,4.85,4.85,0,0,0-3.4-1.41Zm-2,.07a5.13,5.13,0,0,1,5.6,1.12h0a5.32,5.32,0,0,1,0,7.34h0a5.18,5.18,0,0,1-7.27,0h0a5.34,5.34,0,0,1,0-7.34h0A5.22,5.22,0,0,1,112.19,11.3Zm-41.14-.06a4.66,4.66,0,0,0-3.42,1.39h0A4.88,4.88,0,0,0,71.05,21h0a4.45,4.45,0,0,0,1.84-.33,4.34,4.34,0,0,0,1.56-1.05,4.21,4.21,0,0,0,.89-1.42,4.08,4.08,0,0,0,.26-1.66h0a3.6,3.6,0,0,0,0-.56H71.21v.84h3.48v.16A3.16,3.16,0,0,1,73.84,19h0a4,4,0,0,1-2,1.05,4.07,4.07,0,0,1-2.26-.26,3.92,3.92,0,0,1-1.74-1.48,3.87,3.87,0,0,1-.64-2.19,3.93,3.93,0,0,1,.26-1.52,3.9,3.9,0,0,1,2.11-2.18,4,4,0,0,1,1.52-.3,3.4,3.4,0,0,1,1.51.27,3.45,3.45,0,0,1,1.12.79l.62-.62A3.78,3.78,0,0,0,73,11.62h0a4.79,4.79,0,0,0-1.91-.38Zm4.88,5.24a4.49,4.49,0,0,1-1.24,3.31A4.75,4.75,0,0,1,73,20.92a4.91,4.91,0,0,1-2,.35,5.2,5.2,0,0,1-4.77-3.22,5.18,5.18,0,0,1,2.79-6.77,5,5,0,0,1,2-.36,4.88,4.88,0,0,1,2,.41,4,4,0,0,1,1.56,1.11l.1.12-1.07,1.07-.12-.13a2.88,2.88,0,0,0-1.12-.83,2.93,2.93,0,0,0-1.37-.25h0a3.49,3.49,0,0,0-1.39.28,3.35,3.35,0,0,0-1.17.8,3.44,3.44,0,0,0-.77,1.19,3.75,3.75,0,0,0-.24,1.4h0a3.69,3.69,0,0,0,.58,2,3.62,3.62,0,0,0,1.6,1.35,3.57,3.57,0,0,0,2.09.24,3.65,3.65,0,0,0,1.86-.95,2.83,2.83,0,0,0,.74-1.68H70.89V15.6h5l0,.14A4.52,4.52,0,0,1,75.93,16.48Zm1.41-5.34h5.92v1.5H78.94v2.72h3.94v1.48H78.94v2.72h4.32v1.5H77.34Zm.32.32v9.28h5.28v-.86H78.62V16.52h3.94v-.84H78.62V12.32h4.32v-.86Zm6.61-.32h7v1.5H88.51v8.42H87V12.64H84.27Zm.32.32v.86h2.69v8.42h.91V12.32h2.75v-.86Zm11-.32H97.2v9.92H95.64Zm.32.32v9.28h.92V11.46Zm2.47-.32h6.91v1.5h-2.67v8.42h-1.55V12.64H98.43Zm.32.32v.86h2.69v8.42h.91V12.32H105v-.86Zm21.92-.32h1.75l4.42,7.07V11.14h1.56v9.92h-1.53l-4.63-7.43v7.43h-1.57Zm.32.32v9.28h.93V12.52L127,20.74h1V11.46h-.92v7.87l-4.92-7.87Zm-9.56,1.77a3.88,3.88,0,0,1,5.45,0h0a4.24,4.24,0,0,1,0,5.72h0a3.86,3.86,0,0,1-2.72,1.12A3.93,3.93,0,0,1,111.43,19l.12-.12-.12.11a4.27,4.27,0,0,1,0-5.72Zm.23,5.51a3.54,3.54,0,0,0,5,0,3.93,3.93,0,0,0,0-5.28,3.54,3.54,0,0,0-5,0,4,4,0,0,0,0,5.28Z"/><path class="cls-2" d="M16.79,52.32,36.39,32,16.81,11.69a2.28,2.28,0,0,0-.85,2V50.33A2.32,2.32,0,0,0,16.79,52.32Z"/><path class="cls-2" d="M37.1,31.43l5.83-6.06L19.16,11.85a2.58,2.58,0,0,0-1.32-.37L37.09,31.42Z"/><path class="cls-2" d="M37.1,32.55l-19.32,20a2.58,2.58,0,0,0,1.38-.37L43,38.65Z"/><path class="cls-2" d="M51.55,30.28l-7.91-4.51-6,6.22,6,6.26,7.87-4.5C53.22,32.8,53.22,31.23,51.55,30.28Z"/></svg>