<svg id="Camada_2" data-name="Camada 2" xmlns="http://www.w3.org/2000/svg" width="522.884" height="84.866" viewBox="0 0 522.884 84.866">
  <g id="Calque_1" data-name="Calque 1">
    <path id="Caminho_15" data-name="Caminho 15" d="M510.622,61.615,470.056,0V80.914h12.5V42.759a10.17,10.17,0,0,0-.77-4.052c8.373,11.286,19.852,30.912,27.848,46.159,8-15.247,21.493-34.872,29.823-46.159l-.109.544a10.608,10.608,0,0,0-.653,3.508V80.914h12.492V0ZM392,42.542c0-15.573,11.178-27.086,27.186-27.086s27.3,11.512,27.3,27.086c0,15.347-10.968,26.969-27.3,26.969C403.066,69.51,392,58.215,392,42.542m27.186,39.352c22.606,0,40.457-16.009,40.457-39.352,0-22.916-17.65-39.469-40.457-39.469-22.472,0-40.348,16.117-40.348,39.469,0,23.134,17.583,39.352,40.348,39.352m-75.53-.988h12.936V16.436h19.843V4.186H323.81V16.444h19.843ZM250.9,0V80.914H263.51V32.654a8.03,8.03,0,0,0-.77-3.835l53.393,56.03V4.186H303.523V50.328a9.466,9.466,0,0,0,.553,3.617ZM197.834,51.861l10.633-24.892,10.525,24.892ZM208.576.109,173.93,80.914h13.6l6.246-16.888h29.388l6.464,16.888h13.6Z" transform="translate(-28.303)" fill="#fff"/>
    <path id="Caminho_16" data-name="Caminho 16" d="M125.733,81.674H138.56V4.93H125.733V36.947H85.259V4.93H72.432V81.674H85.259V49.665h40.474ZM17.725,17.322H37.677c7.125,0,12.274,4.052,12.274,10.19s-5.149,9.98-12.274,9.98H17.717Zm0,32.344H37.677c13.815,0,24.884-8.448,24.884-22.372C62.561,13.587,51.6,4.93,37.677,4.93H0L4.781,17.414V81.674H17.717Z" transform="translate(0 -0.802)" fill="#fff"/>
  </g>
</svg>
